<svg width="25" height="23" viewBox="0 0 25 23" fill="none" xmlns="http://www.w3.org/2000/svg">
<path d="M8.75 22.5V18.75H0V16.25H8.75C9.4375 16.25 10.026 16.4948 10.5156 16.9844C11.0052 17.474 11.25 18.0625 11.25 18.75V22.5H8.75ZM13.75 22.5V18.75C13.75 18.0625 13.9948 17.474 14.4844 16.9844C14.974 16.4948 15.5625 16.25 16.25 16.25H25V18.75H16.25V22.5H13.75ZM5 15C3.95833 15 3.07292 14.6354 2.34375 13.9062C1.61458 13.1771 1.25 12.2917 1.25 11.25V6.25H23.75V11.25C23.75 12.2917 23.3854 13.1771 22.6562 13.9062C21.9271 14.6354 21.0417 15 20 15H5ZM5 12.5H20C20.3542 12.5 20.651 12.3802 20.8906 12.1406C21.1302 11.901 21.25 11.6042 21.25 11.25V8.75H3.75V11.25C3.75 11.6042 3.86979 11.901 4.10938 12.1406C4.34896 12.3802 4.64583 12.5 5 12.5ZM1.25 5V2.5H8.75V1.25C8.75 0.895833 8.86979 0.598958 9.10938 0.359375C9.34896 0.119792 9.64583 0 10 0H15C15.3542 0 15.651 0.119792 15.8906 0.359375C16.1302 0.598958 16.25 0.895833 16.25 1.25V2.5H23.75V5H1.25ZM3.75 12.5C3.75 12.5 3.75 12.3802 3.75 12.1406C3.75 11.901 3.75 11.6042 3.75 11.25V8.75V11.25C3.75 11.6042 3.75 11.901 3.75 12.1406C3.75 12.3802 3.75 12.5 3.75 12.5Z" fill="#006E1C"/>
</svg>
