<svg width="20" height="25" viewBox="0 0 20 25" fill="none" xmlns="http://www.w3.org/2000/svg">
<path d="M6.625 10.9688C6.625 11.3646 6.69271 11.75 6.82812 12.125C6.96354 12.5 7.15625 12.8438 7.40625 13.1562C7.44792 12.9062 7.53125 12.6615 7.65625 12.4219C7.78125 12.1823 7.9375 11.9792 8.125 11.8125L10 10L11.8438 11.8438C12.0312 12.0104 12.1875 12.2083 12.3125 12.4375C12.4375 12.6667 12.5208 12.9062 12.5625 13.1562C12.7917 12.8438 12.9948 12.5104 13.1719 12.1562C13.349 11.8021 13.4375 11.4271 13.4375 11.0312C13.4375 10.6354 13.375 10.2552 13.25 9.89062C13.125 9.52604 12.9375 9.1875 12.6875 8.875C12.4583 8.97917 12.224 9.0625 11.9844 9.125C11.7448 9.1875 11.5 9.21875 11.25 9.21875C10.625 9.21875 10.0521 9.04167 9.53125 8.6875C9.01042 8.33333 8.61458 7.86458 8.34375 7.28125C8.09375 7.53125 7.86458 7.79688 7.65625 8.07812C7.44792 8.35938 7.26562 8.65625 7.10938 8.96875C6.95312 9.28125 6.83333 9.60417 6.75 9.9375C6.66667 10.2708 6.625 10.6146 6.625 10.9688ZM10 12.625L9.46875 13.1562C9.38542 13.2396 9.32812 13.3229 9.29688 13.4062C9.26562 13.4896 9.25 13.5833 9.25 13.6875C9.25 13.8958 9.32292 14.0625 9.46875 14.1875C9.61458 14.3125 9.79167 14.375 10 14.375C10.2083 14.375 10.3854 14.3125 10.5312 14.1875C10.6771 14.0625 10.75 13.8958 10.75 13.6875C10.75 13.5833 10.7344 13.4896 10.7031 13.4062C10.6719 13.3229 10.6146 13.2396 10.5312 13.1562L10 12.625ZM10 3.75V6.125C10 6.47917 10.125 6.77604 10.375 7.01562C10.625 7.25521 10.9271 7.375 11.2812 7.375C11.5104 7.375 11.7188 7.30729 11.9062 7.17188C12.0938 7.03646 12.2604 6.875 12.4062 6.6875L12.625 6.375C13.4792 6.85417 14.1406 7.50521 14.6094 8.32812C15.0781 9.15104 15.3125 10.0521 15.3125 11.0312C15.3125 12.4896 14.7917 13.724 13.75 14.7344C12.7083 15.7448 11.4583 16.25 10 16.25C8.54167 16.25 7.30208 15.7396 6.28125 14.7188C5.26042 13.6979 4.75 12.4583 4.75 11C4.75 9.39583 5.26042 7.96875 6.28125 6.71875C7.30208 5.46875 8.54167 4.47917 10 3.75ZM2.5 25C1.8125 25 1.22396 24.7552 0.734375 24.2656C0.244792 23.776 0 23.1875 0 22.5V5C0 3.625 0.489583 2.44792 1.46875 1.46875C2.44792 0.489583 3.625 0 5 0H15C16.375 0 17.5521 0.489583 18.5312 1.46875C19.5104 2.44792 20 3.625 20 5V22.5C20 23.1875 19.7552 23.776 19.2656 24.2656C18.776 24.7552 18.1875 25 17.5 25H2.5ZM2.5 20V22.5H17.5V20C16.875 20 16.375 20.2083 16 20.625C15.625 21.0417 14.875 21.25 13.75 21.25C12.625 21.25 11.8906 21.0417 11.5469 20.625C11.2031 20.2083 10.6875 20 10 20C9.3125 20 8.79688 20.2083 8.45312 20.625C8.10938 21.0417 7.375 21.25 6.25 21.25C5.125 21.25 4.39062 21.0417 4.04688 20.625C3.70312 20.2083 3.1875 20 2.5 20ZM6.25 18.75C6.9375 18.75 7.45312 18.5417 7.79688 18.125C8.14062 17.7083 8.875 17.5 10 17.5C11.125 17.5 11.875 17.7083 12.25 18.125C12.625 18.5417 13.125 18.75 13.75 18.75C14.375 18.75 14.875 18.5417 15.25 18.125C15.625 17.7083 16.375 17.5 17.5 17.5V5C17.5 4.3125 17.2552 3.72396 16.7656 3.23438C16.276 2.74479 15.6875 2.5 15 2.5H5C4.3125 2.5 3.72396 2.74479 3.23438 3.23438C2.74479 3.72396 2.5 4.3125 2.5 5V17.5C3.625 17.5 4.35938 17.7083 4.70312 18.125C5.04688 18.5417 5.5625 18.75 6.25 18.75Z" fill="#006E1C"/>
</svg>
