<svg width="23" height="23" viewBox="0 0 23 23" fill="none" xmlns="http://www.w3.org/2000/svg">
<path d="M11.25 18.75C9.16667 18.75 7.39583 18.0208 5.9375 16.5625C4.47917 15.1042 3.75 13.3333 3.75 11.25C3.75 9.16667 4.47917 7.39583 5.9375 5.9375C7.39583 4.47917 9.16667 3.75 11.25 3.75C13.3333 3.75 15.1042 4.47917 16.5625 5.9375C18.0208 7.39583 18.75 9.16667 18.75 11.25C18.75 13.3333 18.0208 15.1042 16.5625 16.5625C15.1042 18.0208 13.3333 18.75 11.25 18.75ZM10.3125 16.1562V13.5L8.4375 15.375C8.72917 15.5625 9.02604 15.724 9.32812 15.8594C9.63021 15.9948 9.95833 16.0938 10.3125 16.1562ZM12.1875 16.1562C12.5208 16.0938 12.8438 15.9948 13.1562 15.8594C13.4688 15.724 13.7708 15.5625 14.0625 15.375L12.1875 13.5V16.1562ZM15.375 14.0625C15.5625 13.7708 15.724 13.4688 15.8594 13.1562C15.9948 12.8438 16.0938 12.5208 16.1562 12.1875H13.5L15.375 14.0625ZM13.5 10.3125H16.1562C16.0938 9.97917 15.9948 9.65625 15.8594 9.34375C15.724 9.03125 15.5625 8.72917 15.375 8.4375L13.5 10.3125ZM12.1875 9L14.0625 7.125C13.7708 6.9375 13.474 6.77604 13.1719 6.64062C12.8698 6.50521 12.5417 6.40625 12.1875 6.34375V9ZM11.25 12.5C11.6042 12.5 11.901 12.3802 12.1406 12.1406C12.3802 11.901 12.5 11.6042 12.5 11.25C12.5 10.8958 12.3802 10.599 12.1406 10.3594C11.901 10.1198 11.6042 10 11.25 10C10.8958 10 10.599 10.1198 10.3594 10.3594C10.1198 10.599 10 10.8958 10 11.25C10 11.6042 10.1198 11.901 10.3594 12.1406C10.599 12.3802 10.8958 12.5 11.25 12.5ZM10.3125 9V6.34375C9.97917 6.40625 9.65625 6.50521 9.34375 6.64062C9.03125 6.77604 8.72917 6.9375 8.4375 7.125L10.3125 9ZM6.34375 10.3125H9L7.125 8.4375C6.9375 8.72917 6.77604 9.03125 6.64062 9.34375C6.50521 9.65625 6.40625 9.97917 6.34375 10.3125ZM7.125 14.0625L9 12.1875H6.34375C6.40625 12.5208 6.50521 12.8438 6.64062 13.1562C6.77604 13.4688 6.9375 13.7708 7.125 14.0625ZM2.5 22.5C1.8125 22.5 1.22396 22.2552 0.734375 21.7656C0.244792 21.276 0 20.6875 0 20V2.5C0 1.8125 0.244792 1.22396 0.734375 0.734375C1.22396 0.244792 1.8125 0 2.5 0H20C20.6875 0 21.276 0.244792 21.7656 0.734375C22.2552 1.22396 22.5 1.8125 22.5 2.5V20C22.5 20.6875 22.2552 21.276 21.7656 21.7656C21.276 22.2552 20.6875 22.5 20 22.5H2.5ZM2.5 20H20V2.5H2.5V20ZM2.5 2.5V20V2.5Z" fill="#006E1C"/>
</svg>
