<svg width="25" height="25" viewBox="0 0 25 25" fill="none" xmlns="http://www.w3.org/2000/svg">
<path d="M0 25L2.5 12.5H22.5L25 25H0ZM1.25 2.5V0H5V2.5H1.25ZM3.0625 22.5H11.25V20H3.5625L3.0625 22.5ZM5.15625 9.15625L3.375 7.40625L6.03125 4.75L7.8125 6.5L5.15625 9.15625ZM4.0625 17.5H11.25V15H4.5625L4.0625 17.5ZM12.5 6.25C10.7708 6.25 9.29688 5.64062 8.07812 4.42188C6.85938 3.20312 6.25 1.72917 6.25 0H8.75C8.75 1.04167 9.11458 1.92708 9.84375 2.65625C10.5729 3.38542 11.4583 3.75 12.5 3.75C13.5417 3.75 14.4271 3.38542 15.1562 2.65625C15.8854 1.92708 16.25 1.04167 16.25 0H18.75C18.75 1.72917 18.1406 3.20312 16.9219 4.42188C15.7031 5.64062 14.2292 6.25 12.5 6.25ZM11.25 11.25V7.5H13.75V11.25H11.25ZM13.75 22.5H21.9375L21.4375 20H13.75V22.5ZM13.75 17.5H20.9375L20.4375 15H13.75V17.5ZM19.8438 9.15625L17.2188 6.5L18.9688 4.75L21.625 7.375L19.8438 9.15625ZM20 2.5V0H23.75V2.5H20Z" fill="#006E1C"/>
</svg>
